<?xml version="1.0" standalone="no"?>
<!DOCTYPE svg PUBLIC "-//W3C//DTD SVG 20010904//EN"
 "http://www.w3.org/TR/2001/REC-SVG-20010904/DTD/svg10.dtd">
<svg version="1.0" xmlns="http://www.w3.org/2000/svg"
 width="500.000000pt" height="500.000000pt" viewBox="0 0 500.000000 500.000000"
 preserveAspectRatio="xMidYMid meet">
<metadata>
Created by potrace 1.14, written by Peter Selinger 2001-2017
</metadata>
<g transform="translate(0.000000,500.000000) scale(0.100000,-0.100000)"
fill="#000000" stroke="none">
<path d="M0 2500 l0 -2500 2500 0 2500 0 0 2500 0 2500 -2500 0 -2500 0 0
-2500z m1829 294 c60 -50 62 -141 3 -196 -26 -24 -72 -46 -72 -34 0 3 14 35
30 69 35 74 40 127 12 127 -80 0 -242 -384 -242 -574 0 -55 3 -67 22 -80 18
-13 25 -13 57 -1 45 19 111 91 151 167 17 32 36 58 42 58 17 0 3 -83 -23 -137
-28 -59 -111 -149 -145 -157 -54 -14 -164 65 -180 130 -10 38 3 157 26 249 26
107 122 296 181 357 54 57 90 63 138 22z m313 -245 c29 -29 30 -33 26 -93 l-5
-63 39 10 c73 18 60 -13 -14 -33 -29 -8 -43 -20 -58 -50 -11 -22 -40 -60 -64
-85 -37 -39 -48 -45 -83 -45 -45 0 -89 34 -100 79 -13 51 52 182 96 196 11 3
23 16 27 28 3 12 17 37 31 55 31 41 64 42 105 1z m345 16 c3 -10 -16 -38 -57
-81 l-63 -66 40 -18 c22 -10 43 -24 45 -31 9 -26 97 58 123 117 20 45 28 54
49 54 14 0 27 -4 30 -8 3 -5 -6 -42 -20 -83 -33 -96 -42 -169 -23 -169 27 0
158 150 178 204 12 29 50 36 70 12 9 -11 6 -27 -14 -75 -14 -33 -25 -66 -25
-73 0 -7 35 22 78 65 42 42 81 77 85 77 22 0 -3 -34 -86 -119 l-94 -96 -18
-90 c-21 -105 -65 -243 -89 -280 -20 -31 -58 -47 -91 -39 -33 8 -67 48 -67 78
0 45 81 173 170 267 25 28 37 53 48 100 20 94 18 96 -33 31 -62 -78 -125 -119
-158 -104 -31 14 -40 48 -27 107 l10 47 -39 -38 c-34 -33 -39 -44 -39 -82 0
-46 -48 -159 -78 -184 -8 -7 -6 2 7 22 11 19 21 40 21 45 0 6 -12 -10 -26 -35
-14 -25 -33 -54 -42 -65 l-17 -20 25 20 c18 14 21 15 12 3 -22 -28 -110 -80
-153 -89 -58 -13 -117 4 -130 39 -24 62 6 98 181 213 77 51 140 96 140 101 0
23 -23 48 -42 48 -12 0 -39 -12 -59 -26 -21 -14 -43 -23 -48 -19 -21 12 -10
40 24 64 41 28 119 110 112 118 -3 3 -26 -3 -50 -12 -62 -24 -106 0 -79 42 9
15 118 40 175 42 25 1 40 -4 44 -14z m1261 -725 c58 -14 133 -50 139 -67 6
-16 -43 -127 -63 -144 -9 -7 -25 -4 -52 10 -56 28 -112 36 -136 18 -32 -23
-13 -43 93 -97 151 -78 190 -132 179 -251 -7 -67 -48 -125 -113 -158 -44 -23
-61 -26 -155 -26 -115 1 -185 21 -245 69 l-30 25 35 66 c52 99 55 100 121 58
89 -55 185 -55 177 0 -2 16 -27 34 -92 69 -136 72 -176 121 -176 212 0 156
147 255 318 216z m-2503 -90 l0 -85 -77 -3 -78 -3 -2 -262 -3 -262 -95 0 -95
0 -3 262 -2 262 -73 3 -72 3 -3 74 c-2 41 -1 80 2 88 5 11 52 13 253 11 l248
-3 0 -85z m523 78 c14 -19 272 -663 272 -682 0 -14 -14 -16 -94 -16 -63 0 -97
4 -103 13 -6 6 -18 36 -28 65 l-17 53 -115 -3 -115 -3 -23 -60 -22 -60 -93 -3
c-51 -1 -97 1 -102 6 -5 5 49 151 123 333 72 178 135 334 140 347 8 20 15 22
88 22 51 0 82 -4 89 -12z m550 0 c9 -9 12 -83 12 -270 l0 -258 109 0 c90 0
110 -3 115 -16 9 -23 7 -127 -2 -142 -7 -9 -56 -12 -213 -10 l-204 3 -3 340
c-1 187 0 346 3 352 6 17 166 18 183 1z m520 -1 c6 -7 13 -59 14 -115 l3 -101
95 115 95 115 104 -3 c67 -2 106 -7 108 -14 2 -7 -55 -81 -126 -165 -72 -85
-131 -156 -131 -159 1 -3 68 -81 150 -174 83 -93 150 -175 150 -182 0 -11 -26
-14 -120 -14 l-119 0 -106 120 -105 121 0 -108 c0 -59 -4 -114 -8 -121 -6 -9
-33 -12 -98 -10 l-89 3 -3 344 c-2 269 1 346 10 353 22 13 164 10 176 -5z
m-914 -843 c24 -9 21 -37 -3 -29 -33 10 -33 -13 -1 -30 31 -16 39 -42 18 -63
-14 -14 -57 -16 -77 -3 -21 13 -3 32 25 25 31 -8 31 9 -1 30 -29 19 -33 51 -7
65 20 12 25 13 46 5z m299 -26 c23 -27 22 -59 -3 -86 -51 -54 -139 5 -109 72
22 47 77 54 112 14z m456 16 c7 -6 -11 -24 -20 -19 -5 4 -14 3 -20 -1 -6 -4 2
-16 21 -33 22 -18 29 -31 25 -44 -13 -31 -90 -37 -90 -7 0 10 8 14 28 12 34
-4 35 11 2 32 -29 19 -33 51 -7 65 14 9 48 6 61 -5z m595 -5 c49 -39 22 -119
-41 -119 -63 0 -87 80 -37 119 15 12 32 21 39 21 7 0 24 -9 39 -21z m-2129
-34 l11 -40 10 40 c6 23 16 40 24 40 8 0 19 -17 26 -40 l11 -40 8 38 c7 35 28
58 41 45 3 -3 -3 -33 -12 -67 -20 -71 -47 -84 -63 -28 l-9 32 -12 -32 c-20
-53 -44 -43 -63 27 -21 73 -21 72 0 68 9 -2 21 -20 28 -43z m205 20 c0 -16 6
-25 15 -25 9 0 15 9 15 25 0 16 6 25 15 25 12 0 15 -14 15 -65 0 -51 -3 -65
-15 -65 -9 0 -15 9 -15 25 0 16 -6 25 -15 25 -9 0 -15 -9 -15 -25 0 -16 -6
-25 -15 -25 -12 0 -15 14 -15 65 0 51 3 65 15 65 9 0 15 -9 15 -25z m180 16
c0 -5 -10 -11 -22 -13 -32 -5 -35 -28 -3 -28 32 0 29 -23 -3 -28 -30 -5 -28
-22 3 -22 16 0 25 -6 25 -15 0 -11 -11 -15 -40 -15 l-40 0 0 65 0 65 40 0 c22
0 40 -4 40 -9z m124 -13 c8 -13 8 -23 -2 -38 -10 -17 -9 -25 4 -45 15 -24 15
-25 -3 -25 -10 0 -26 12 -35 28 l-17 27 -1 -27 c0 -21 -5 -28 -20 -28 -18 0
-20 7 -20 66 l0 65 41 -3 c27 -2 46 -9 53 -20z m116 12 c0 -5 -9 -10 -20 -10
-11 0 -20 -7 -20 -15 0 -8 9 -15 20 -15 11 0 20 -7 20 -15 0 -8 -9 -15 -20
-15 -11 0 -20 -4 -20 -10 0 -5 9 -10 20 -10 11 0 20 -7 20 -15 0 -10 -11 -15
-35 -15 l-35 0 0 65 0 65 35 0 c19 0 35 -4 35 -10z m300 0 c0 -5 -7 -10 -15
-10 -12 0 -15 -13 -15 -55 0 -42 -3 -55 -15 -55 -12 0 -15 13 -15 55 0 42 -3
55 -15 55 -8 0 -15 5 -15 10 0 6 20 10 45 10 25 0 45 -4 45 -10z m294 -12 c8
-13 8 -23 -2 -38 -10 -17 -9 -25 4 -45 15 -24 15 -25 -3 -25 -10 0 -26 12 -35
28 l-17 27 -1 -27 c0 -21 -5 -28 -20 -28 -18 0 -20 7 -20 66 l0 65 41 -3 c27
-2 46 -9 53 -20z m76 -43 c0 -58 -2 -65 -20 -65 -18 0 -20 7 -20 65 0 58 2 65
20 65 18 0 20 -7 20 -65z m110 56 c0 -5 -10 -11 -22 -13 -32 -5 -35 -28 -4
-28 16 0 26 -6 26 -15 0 -9 -9 -15 -25 -15 -14 0 -25 -4 -25 -10 0 -5 11 -10
25 -10 16 0 25 -6 25 -15 0 -11 -11 -15 -40 -15 l-40 0 0 65 0 65 40 0 c22 0
40 -4 40 -9z m242 -38 c2 -36 7 -49 21 -51 14 -3 17 4 17 47 0 45 2 51 21 51
20 0 21 -4 17 -56 -5 -59 -16 -74 -58 -74 -38 0 -50 18 -50 77 0 40 4 53 14
53 11 0 16 -14 18 -47z m157 15 l36 -32 3 32 c2 20 9 32 18 32 11 0 14 -15 14
-66 l0 -65 -37 31 -38 31 -3 -31 c-2 -22 -8 -30 -23 -30 -17 0 -19 7 -19 65 0
36 3 65 6 65 4 0 23 -14 43 -32z m181 22 c0 -5 -9 -10 -20 -10 -11 0 -20 -7
-20 -15 0 -8 9 -15 20 -15 11 0 20 -7 20 -15 0 -8 -9 -15 -20 -15 -15 0 -20
-7 -20 -25 0 -18 -5 -25 -20 -25 -18 0 -20 7 -20 65 l0 65 40 0 c22 0 40 -4
40 -10z m240 -40 c0 -43 3 -50 20 -50 11 0 20 -7 20 -15 0 -11 -11 -15 -40
-15 l-40 0 0 65 c0 58 2 65 20 65 17 0 20 -7 20 -50z m162 33 c22 -20 23 -70
1 -95 -9 -10 -30 -18 -50 -18 l-33 0 0 65 0 65 32 0 c17 0 40 -7 50 -17z"/>
<path d="M2071 2524 c-22 -28 -35 -77 -29 -115 2 -18 10 -25 30 -27 24 -3 28
1 38 38 13 49 10 122 -6 127 -7 2 -21 -8 -33 -23z"/>
<path d="M1971 2334 c-25 -79 -26 -103 -6 -110 23 -9 63 22 96 74 35 55 36 62
8 62 -11 0 -34 9 -49 20 l-29 21 -20 -67z"/>
<path d="M2297 2180 c-117 -89 -157 -129 -157 -156 0 -57 69 -34 145 47 52 57
110 151 103 168 -2 5 -43 -22 -91 -59z"/>
<path d="M2673 2123 c-59 -85 -85 -140 -81 -176 5 -50 38 -43 65 13 24 50 69
208 61 215 -3 3 -23 -21 -45 -52z"/>
<path d="M3596 1796 c-82 -30 -134 -109 -123 -188 8 -62 47 -103 141 -148 97
-46 141 -89 131 -129 -17 -75 -116 -94 -218 -43 l-57 29 -25 -38 c-14 -21 -25
-42 -25 -47 0 -12 65 -42 125 -58 150 -41 285 13 315 125 26 99 -10 150 -156
222 -79 38 -108 58 -120 81 -41 79 66 137 173 93 19 -8 37 -15 38 -15 5 0 45
66 45 74 0 4 -20 15 -45 26 -62 27 -151 34 -199 16z"/>
<path d="M780 1755 l0 -45 68 0 c40 0 73 -5 80 -12 9 -9 12 -83 12 -270 l0
-258 55 0 55 0 2 268 3 267 75 0 75 0 0 45 0 45 -212 3 -213 2 0 -45z"/>
<path d="M1627 1793 c-9 -15 -247 -610 -247 -617 0 -4 25 -6 57 -4 l56 3 22
60 23 60 145 3 145 3 22 -66 22 -65 60 0 c44 0 59 3 55 13 -3 6 -60 148 -127
315 l-123 302 -53 0 c-29 0 -55 -3 -57 -7z m111 -269 c23 -58 42 -109 42 -115
0 -5 -42 -9 -95 -9 -75 0 -95 3 -95 14 0 13 64 188 76 207 15 25 35 -1 72 -97z"/>
<path d="M1663 1500 l-21 -55 35 -3 c19 -2 37 -1 40 2 3 3 -3 29 -14 58 l-20
52 -20 -54z"/>
<path d="M2177 1793 c-4 -3 -7 -145 -7 -315 l0 -308 170 0 170 0 0 45 0 45
-103 0 c-67 0 -107 4 -115 12 -9 9 -12 83 -12 270 l0 258 -48 0 c-27 0 -52 -3
-55 -7z"/>
<path d="M2697 1793 c-4 -3 -7 -145 -7 -315 l0 -308 55 0 54 0 3 137 c3 115 6
138 19 141 9 2 62 -51 137 -138 l122 -140 77 0 77 0 -25 28 c-111 121 -259
294 -259 303 0 6 48 68 108 137 59 70 113 135 121 145 12 16 9 17 -50 17 l-64
0 -104 -125 c-128 -154 -139 -164 -151 -145 -6 8 -10 72 -10 143 l0 127 -48 0
c-27 0 -52 -3 -55 -7z"/>
<path d="M2144 936 c-11 -28 1 -51 25 -51 32 0 49 28 32 49 -17 20 -50 21 -57
2z"/>
<path d="M3203 934 c-8 -22 10 -49 32 -49 22 0 40 27 32 49 -8 21 -56 21 -64
0z"/>
<path d="M1600 945 c0 -9 5 -15 11 -13 6 2 11 8 11 13 0 5 -5 11 -11 13 -6 2
-11 -4 -11 -13z"/>
<path d="M2310 945 c0 -9 5 -15 11 -13 6 2 11 8 11 13 0 5 -5 11 -11 13 -6 2
-11 -4 -11 -13z"/>
<path d="M3480 915 c0 -29 3 -36 18 -33 11 2 17 13 17 33 0 20 -6 31 -17 33
-15 3 -18 -4 -18 -33z"/>
</g>
</svg>
